{"Protocol":0,"Id":"ca4cbc11608675be613e982ee71da194","Path":"/data/media/movies/Sundutan (2026)/Sundutan 2026 1080p Tagalog WEB-DL HEVC x265 BONE.mkv","EncoderPath":null,"EncoderProtocol":null,"Type":0,"Container":"mkv","Size":946944425,"Name":"Sundutan 2026 1080p Tagalog WEB-DL HEVC x265 BONE","IsRemote":false,"ETag":"891582ea0b1eb1c4c1a45cb5a2650b16","RunTimeTicks":42119889999,"ReadAtNativeFramerate":false,"IgnoreDts":false,"IgnoreIndex":false,"GenPtsInput":false,"SupportsTranscoding":true,"SupportsDirectStream":true,"SupportsDirectPlay":true,"IsInfiniteStream":false,"UseMostCompatibleTranscodingProfile":false,"RequiresOpening":false,"OpenToken":null,"RequiresClosing":false,"LiveStreamId":null,"BufferMs":null,"RequiresLooping":false,"SupportsProbing":true,"VideoType":0,"IsoType":null,"Video3DFormat":null,"MediaStreams":[{"Codec":"hevc","CodecTag":null,"Language":null,"ColorRange":null,"ColorSpace":"bt709","ColorTransfer":"bt709","ColorPrimaries":"bt709","DvVersionMajor":null,"DvVersionMinor":null,"DvProfile":null,"DvLevel":null,"RpuPresentFlag":null,"ElPresentFlag":null,"BlPresentFlag":null,"DvBlSignalCompatibilityId":null,"Rotation":null,"Comment":null,"TimeBase":"1/1000","CodecTimeBase":null,"Title":null,"Hdr10PlusPresentFlag":null,"VideoRange":1,"VideoRangeType":1,"VideoDoViTitle":null,"AudioSpatialFormat":0,"LocalizedUndefined":null,"LocalizedDefault":null,"LocalizedForced":null,"LocalizedExternal":null,"LocalizedHearingImpaired":null,"DisplayTitle":"1080p HEVC SDR","NalLengthSize":null,"IsInterlaced":false,"IsAVC":false,"ChannelLayout":null,"BitRate":1798569,"BitDepth":8,"RefFrames":1,"PacketLength":null,"Channels":null,"SampleRate":null,"IsDefault":true,"IsForced":false,"IsHearingImpaired":false,"Height":1080,"Width":1920,"AverageFrameRate":30,"RealFrameRate":30,"ReferenceFrameRate":30,"Profile":"Main","Type":1,"AspectRatio":"16:9","Index":0,"Score":null,"IsExternal":false,"DeliveryMethod":null,"DeliveryUrl":null,"IsExternalUrl":null,"IsTextSubtitleStream":false,"SupportsExternalStream":false,"Path":null,"PixelFormat":"yuv420p","Level":120,"IsAnamorphic":false},{"Codec":"aac","CodecTag":null,"Language":"tgl","ColorRange":null,"ColorSpace":null,"ColorTransfer":null,"ColorPrimaries":null,"DvVersionMajor":null,"DvVersionMinor":null,"DvProfile":null,"DvLevel":null,"RpuPresentFlag":null,"ElPresentFlag":null,"BlPresentFlag":null,"DvBlSignalCompatibilityId":null,"Rotation":null,"Comment":null,"TimeBase":"1/1000","CodecTimeBase":null,"Title":null,"Hdr10PlusPresentFlag":null,"VideoRange":0,"VideoRangeType":0,"VideoDoViTitle":null,"AudioSpatialFormat":0,"LocalizedUndefined":null,"LocalizedDefault":"Default","LocalizedForced":null,"LocalizedExternal":"External","LocalizedHearingImpaired":null,"DisplayTitle":"Tgl - AAC - 5.1 - Default","NalLengthSize":null,"IsInterlaced":false,"IsAVC":false,"ChannelLayout":"5.1","BitRate":320000,"BitDepth":null,"RefFrames":null,"PacketLength":null,"Channels":6,"SampleRate":48000,"IsDefault":true,"IsForced":false,"IsHearingImpaired":false,"Height":null,"Width":null,"AverageFrameRate":null,"RealFrameRate":null,"ReferenceFrameRate":null,"Profile":"LC","Type":0,"AspectRatio":null,"Index":1,"Score":null,"IsExternal":false,"DeliveryMethod":null,"DeliveryUrl":null,"IsExternalUrl":null,"IsTextSubtitleStream":false,"SupportsExternalStream":false,"Path":null,"PixelFormat":null,"Level":0,"IsAnamorphic":null},{"Codec":"subrip","CodecTag":null,"Language":"eng","ColorRange":null,"ColorSpace":null,"ColorTransfer":null,"ColorPrimaries":null,"DvVersionMajor":null,"DvVersionMinor":null,"DvProfile":null,"DvLevel":null,"RpuPresentFlag":null,"ElPresentFlag":null,"BlPresentFlag":null,"DvBlSignalCompatibilityId":null,"Rotation":null,"Comment":null,"TimeBase":"1/1000","CodecTimeBase":null,"Title":null,"Hdr10PlusPresentFlag":null,"VideoRange":0,"VideoRangeType":0,"VideoDoViTitle":null,"AudioSpatialFormat":0,"LocalizedUndefined":"Undefined","LocalizedDefault":"Default","LocalizedForced":"Forced","LocalizedExternal":"External","LocalizedHearingImpaired":"Hearing Impaired","DisplayTitle":"English - SUBRIP","NalLengthSize":null,"IsInterlaced":false,"IsAVC":false,"ChannelLayout":null,"BitRate":null,"BitDepth":null,"RefFrames":null,"PacketLength":null,"Channels":null,"SampleRate":null,"IsDefault":false,"IsForced":false,"IsHearingImpaired":false,"Height":0,"Width":0,"AverageFrameRate":null,"RealFrameRate":null,"ReferenceFrameRate":null,"Profile":null,"Type":2,"AspectRatio":null,"Index":2,"Score":null,"IsExternal":false,"DeliveryMethod":null,"DeliveryUrl":null,"IsExternalUrl":null,"IsTextSubtitleStream":true,"SupportsExternalStream":true,"Path":null,"PixelFormat":null,"Level":0,"IsAnamorphic":null}],"MediaAttachments":[],"Formats":[],"Bitrate":2118569,"FallbackMaxStreamingBitrate":null,"Timestamp":null,"RequiredHttpHeaders":{},"TranscodingUrl":null,"TranscodingSubProtocol":0,"TranscodingContainer":null,"AnalyzeDurationMs":null,"DefaultAudioStreamIndex":null,"DefaultSubtitleStreamIndex":null,"HasSegments":false}

/usr/lib/jellyfin-ffmpeg/ffmpeg -analyzeduration 200M -probesize 1G -ss 00:11:09.000  -i file:"/data/media/movies/Sundutan (2026)/Sundutan 2026 1080p Tagalog WEB-DL HEVC x265 BONE.mkv" -map_metadata -1 -map_chapters -1 -threads 0 -map 0:0 -map 0:1 -map -0:s -codec:v:0 libx264 -preset veryfast -crf 23 -maxrate 7494037 -bufsize 14988074 -profile:v:0 high -level 51 -x264opts:0 subme=0:me_range=16:rc_lookahead=10:me=hex:open_gop=0 -force_key_frames:0 "expr:gte(t,n_forced*3)" -sc_threshold:v:0 0 -vf "setparams=color_primaries=bt709:color_trc=bt709:colorspace=bt709,scale=trunc(min(max(iw\,ih*a)\,min(1920\,1080*a))/2)*2:trunc(min(max(iw/a\,ih)\,min(1920/a\,1080))/2)*2,format=yuv420p" -codec:a:0 libfdk_aac -ac 2 -ab 256000 -af "volume=2" -copyts -avoid_negative_ts disabled -max_muxing_queue_size 2048 -f hls -max_delay 5000000 -hls_time 3 -hls_segment_type mpegts -start_number 223 -hls_segment_filename "/cache/transcodes/3fe200e49ba8f6a66ee13c6da3ea7483%d.ts" -hls_playlist_type vod -hls_list_size 0 -y "/cache/transcodes/3fe200e49ba8f6a66ee13c6da3ea7483.m3u8"


ffmpeg version 7.1.3-Jellyfin Copyright (c) 2000-2025 the FFmpeg developers
  built with gcc 14 (Debian 14.2.0-19)
  configuration: --prefix=/usr/lib/jellyfin-ffmpeg --target-os=linux --extra-version=Jellyfin --disable-doc --disable-ffplay --disable-static --disable-libxcb --disable-sdl2 --disable-xlib --enable-lto=auto --enable-gpl --enable-version3 --enable-shared --enable-gmp --enable-gnutls --enable-chromaprint --enable-opencl --enable-libdrm --enable-libxml2 --enable-libass --enable-libfreetype --enable-libfribidi --enable-libfontconfig --enable-libharfbuzz --enable-libbluray --enable-libmp3lame --enable-libopus --enable-libtheora --enable-libvorbis --enable-libopenmpt --enable-libdav1d --enable-libsvtav1 --enable-libwebp --enable-libvpx --enable-libx264 --enable-libx265 --enable-libzvbi --enable-libzimg --enable-libfdk-aac --arch=amd64 --enable-libshaderc --enable-libplacebo --enable-vulkan --enable-vaapi --enable-amf --enable-libvpl --enable-ffnvcodec --enable-cuda --enable-cuda-llvm --enable-cuvid --enable-nvdec --enable-nvenc
  libavutil      59. 39.100 / 59. 39.100
  libavcodec     61. 19.101 / 61. 19.101
  libavformat    61.  7.100 / 61.  7.100
  libavdevice    61.  3.100 / 61.  3.100
  libavfilter    10.  4.100 / 10.  4.100
  libswscale      8.  3.100 /  8.  3.100
  libswresample   5.  3.100 /  5.  3.100
  libpostproc    58.  3.100 / 58.  3.100
Input #0, matroska,webm, from 'file:/data/media/movies/Sundutan (2026)/Sundutan 2026 1080p Tagalog WEB-DL HEVC x265 BONE.mkv':
  Metadata:
    creation_time   : 2026-03-07T15:57:57.000000Z
    ENCODER         : Lavf61.7.100
  Duration: 01:10:11.99, start: -0.021000, bitrate: 1798 kb/s
  Stream #0:0: Video: hevc (Main), yuv420p(tv, bt709), 1920x1080 [SAR 1:1 DAR 16:9], 30 fps, 30 tbr, 1k tbn (default)
      Metadata:
        DURATION        : 01:10:11.900000000
  Stream #0:1(tgl): Audio: aac (LC), 48000 Hz, 5.1, fltp (default)
      Metadata:
        DURATION        : 01:10:11.989000000
  Stream #0:2(eng): Subtitle: subrip (srt)
      Metadata:
        DURATION        : 01:05:54.531000000
Stream mapping:
  Stream #0:0 -> #0:0 (hevc (native) -> h264 (libx264))
  Stream #0:1 -> #0:1 (aac (native) -> aac (libfdk_aac))
Press [q] to stop, [?] for help
[libx264 @ 0x796d71902500] using SAR=1/1
[libx264 @ 0x796d71902500] using cpu capabilities: MMX2 SSE2Fast SSSE3 SSE4.2 AVX FMA3 BMI2 AVX2
[libx264 @ 0x796d71902500] profile High, level 5.1, 4:2:0, 8-bit
[libx264 @ 0x796d71902500] 264 - core 164 r3108 31e19f9 - H.264/MPEG-4 AVC codec - Copyleft 2003-2023 - http://www.videolan.org/x264.html - options: cabac=1 ref=1 deblock=1:0:0 analyse=0x3:0x113 me=hex subme=0 psy=1 psy_rd=1.00:0.00 mixed_ref=0 me_range=16 chroma_me=1 trellis=0 8x8dct=1 cqm=0 deadzone=21,11 fast_pskip=1 chroma_qp_offset=0 threads=6 lookahead_threads=1 sliced_threads=0 nr=0 decimate=1 interlaced=0 bluray_compat=0 constrained_intra=0 bframes=3 b_pyramid=2 b_adapt=1 b_bias=0 direct=1 weightb=1 open_gop=0 weightp=1 keyint=250 keyint_min=25 scenecut=0 intra_refresh=0 rc_lookahead=10 rc=crf mbtree=1 crf=23.0 qcomp=0.60 qpmin=0 qpmax=69 qpstep=4 vbv_maxrate=7494 vbv_bufsize=14988 crf_max=0.0 nal_hrd=none filler=0 ip_ratio=1.40 aq=1:1.00
Output #0, hls, to '/cache/transcodes/3fe200e49ba8f6a66ee13c6da3ea7483.m3u8':
  Metadata:
    encoder         : Lavf61.7.100
  Stream #0:0: Video: h264, yuv420p(tv, bt709, progressive), 1920x1080 [SAR 1:1 DAR 16:9], q=2-31, 30 fps, 90k tbn (default)
      Metadata:
        encoder         : Lavc61.19.101 libx264
      Side data:
        cpb: bitrate max/min/avg: 7494000/0/0 buffer size: 14988000 vbv_delay: N/A
  Stream #0:1: Audio: aac, 48000 Hz, stereo, s16, 256 kb/s (default)
      Metadata:
        encoder         : Lavc61.19.101 libfdk_aac
      Side data:
        cpb: bitrate max/min/avg: 256000/256000/256000 buffer size: 0 vbv_delay: N/A
frame=   20 fps=0.0 q=29.0 size=N/A time=00:00:00.00 bitrate=N/A speed=   0x    
frame=   68 fps= 68 q=29.0 size=N/A time=00:00:01.60 bitrate=N/A speed= 1.6x    
[hls @ 0x796d7176ef00] Opening '/cache/transcodes/3fe200e49ba8f6a66ee13c6da3ea7483223.ts' for writing
frame=  127 fps= 85 q=29.0 size=N/A time=00:00:03.56 bitrate=N/A speed=2.38x    
[hls @ 0x796d7176ef00] Opening '/cache/transcodes/3fe200e49ba8f6a66ee13c6da3ea7483224.ts' for writing
frame=  182 fps= 91 q=29.0 size=N/A time=00:00:05.40 bitrate=N/A speed= 2.7x    
frame=  237 fps= 95 q=29.0 size=N/A time=00:00:07.23 bitrate=N/A speed=2.89x    
[hls @ 0x796d7176ef00] Opening '/cache/transcodes/3fe200e49ba8f6a66ee13c6da3ea7483225.ts' for writing
frame=  297 fps= 99 q=29.0 size=N/A time=00:00:09.23 bitrate=N/A speed=3.07x    
frame=  360 fps=103 q=29.0 size=N/A time=00:00:11.33 bitrate=N/A speed=3.23x    
[hls @ 0x796d7176ef00] Opening '/cache/transcodes/3fe200e49ba8f6a66ee13c6da3ea7483226.ts' for writing
frame=  420 fps=105 q=29.0 size=N/A time=00:00:13.33 bitrate=N/A speed=3.33x    
[hls @ 0x796d7176ef00] Opening '/cache/transcodes/3fe200e49ba8f6a66ee13c6da3ea7483227.ts' for writing
frame=  470 fps=104 q=29.0 size=N/A time=00:00:15.00 bitrate=N/A speed=3.33x    
frame=  521 fps=104 q=29.0 size=N/A time=00:00:16.70 bitrate=N/A speed=3.33x    
[hls @ 0x796d7176ef00] Opening '/cache/transcodes/3fe200e49ba8f6a66ee13c6da3ea7483228.ts' for writing
frame=  571 fps=104 q=29.0 size=N/A time=00:00:18.36 bitrate=N/A speed=3.33x    
frame=  625 fps=104 q=29.0 size=N/A time=00:00:20.16 bitrate=N/A speed=3.35x    
[hls @ 0x796d7176ef00] Opening '/cache/transcodes/3fe200e49ba8f6a66ee13c6da3ea7483229.ts' for writing
frame=  700 fps=107 q=29.0 size=N/A time=00:00:22.66 bitrate=N/A speed=3.48x    
[hls @ 0x796d7176ef00] Opening '/cache/transcodes/3fe200e49ba8f6a66ee13c6da3ea7483230.ts' for writing
frame=  756 fps=108 q=29.0 size=N/A time=00:00:24.53 bitrate=N/A speed= 3.5x    
[hls @ 0x796d7176ef00] Opening '/cache/transcodes/3fe200e49ba8f6a66ee13c6da3ea7483231.ts' for writing
frame=  818 fps=109 q=29.0 size=N/A time=00:00:26.60 bitrate=N/A speed=3.54x    
frame=  895 fps=112 q=29.0 size=N/A time=00:00:29.16 bitrate=N/A speed=3.64x    
[hls @ 0x796d7176ef00] Opening '/cache/transcodes/3fe200e49ba8f6a66ee13c6da3ea7483232.ts' for writing
frame=  966 fps=113 q=29.0 size=N/A time=00:00:31.53 bitrate=N/A speed= 3.7x    
[hls @ 0x796d7176ef00] Opening '/cache/transcodes/3fe200e49ba8f6a66ee13c6da3ea7483233.ts' for writing
frame= 1034 fps=115 q=29.0 size=N/A time=00:00:33.80 bitrate=N/A speed=3.75x    
[hls @ 0x796d7176ef00] Opening '/cache/transcodes/3fe200e49ba8f6a66ee13c6da3ea7483234.ts' for writing
frame= 1108 fps=116 q=29.0 size=N/A time=00:00:36.26 bitrate=N/A speed=3.81x    
[hls @ 0x796d7176ef00] Opening '/cache/transcodes/3fe200e49ba8f6a66ee13c6da3ea7483235.ts' for writing
frame= 1183 fps=118 q=29.0 size=N/A time=00:00:38.76 bitrate=N/A speed=3.87x    
frame= 1243 fps=118 q=29.0 size=N/A time=00:00:40.76 bitrate=N/A speed=3.88x    
[hls @ 0x796d7176ef00] Opening '/cache/transcodes/3fe200e49ba8f6a66ee13c6da3ea7483236.ts' for writing
frame= 1310 fps=119 q=29.0 size=N/A time=00:00:43.00 bitrate=N/A speed= 3.9x    
[hls @ 0x796d7176ef00] Opening '/cache/transcodes/3fe200e49ba8f6a66ee13c6da3ea7483237.ts' for writing
frame= 1362 fps=118 q=29.0 size=N/A time=00:00:44.76 bitrate=N/A speed=3.89x    
frame= 1423 fps=118 q=29.0 size=N/A time=00:00:46.76 bitrate=N/A speed=3.89x    
[hls @ 0x796d7176ef00] Opening '/cache/transcodes/3fe200e49ba8f6a66ee13c6da3ea7483238.ts' for writing
frame= 1476 fps=118 q=29.0 size=N/A time=00:00:48.53 bitrate=N/A speed=3.87x    
[hls @ 0x796d7176ef00] Opening '/cache/transcodes/3fe200e49ba8f6a66ee13c6da3ea7483239.ts' for writing
frame= 1542 fps=117 q=29.0 size=N/A time=00:00:50.73 bitrate=N/A speed=3.84x    
frame= 1598 fps=117 q=29.0 size=N/A time=00:00:52.63 bitrate=N/A speed=3.84x    
[hls @ 0x796d7176ef00] Opening '/cache/transcodes/3fe200e49ba8f6a66ee13c6da3ea7483240.ts' for writing
frame= 1664 fps=117 q=29.0 size=N/A time=00:00:54.80 bitrate=N/A speed=3.86x    
[hls @ 0x796d7176ef00] Opening '/cache/transcodes/3fe200e49ba8f6a66ee13c6da3ea7483241.ts' for writing
frame= 1717 fps=117 q=29.0 size=N/A time=00:00:56.56 bitrate=N/A speed=3.85x    
frame= 1777 fps=117 q=29.0 size=N/A time=00:00:58.56 bitrate=N/A speed=3.85x    
[hls @ 0x796d7176ef00] Opening '/cache/transcodes/3fe200e49ba8f6a66ee13c6da3ea7483242.ts' for writing
frame= 1844 fps=117 q=29.0 size=N/A time=00:01:00.80 bitrate=N/A speed=3.87x    
[hls @ 0x796d7176ef00] Opening '/cache/transcodes/3fe200e49ba8f6a66ee13c6da3ea7483243.ts' for writing
frame= 1898 fps=117 q=29.0 size=N/A time=00:01:02.60 bitrate=N/A speed=3.86x    
frame= 1952 fps=117 q=29.0 size=N/A time=00:01:04.40 bitrate=N/A speed=3.85x    
[hls @ 0x796d7176ef00] Opening '/cache/transcodes/3fe200e49ba8f6a66ee13c6da3ea7483244.ts' for writing
frame= 2008 fps=117 q=29.0 size=N/A time=00:01:06.26 bitrate=N/A speed=3.85x    
frame= 2059 fps=116 q=29.0 size=N/A time=00:01:07.96 bitrate=N/A speed=3.84x    
[hls @ 0x796d7176ef00] Opening '/cache/transcodes/3fe200e49ba8f6a66ee13c6da3ea7483245.ts' for writing
frame= 2107 fps=116 q=29.0 size=N/A time=00:01:09.56 bitrate=N/A speed=3.82x    
[hls @ 0x796d7176ef00] Opening '/cache/transcodes/3fe200e49ba8f6a66ee13c6da3ea7483246.ts' for writing
frame= 2168 fps=116 q=29.0 size=N/A time=00:01:11.60 bitrate=N/A speed=3.83x    
frame= 2220 fps=116 q=29.0 size=N/A time=00:01:13.33 bitrate=N/A speed=3.82x    
[hls @ 0x796d7176ef00] Opening '/cache/transcodes/3fe200e49ba8f6a66ee13c6da3ea7483247.ts' for writing
frame= 2270 fps=115 q=29.0 size=N/A time=00:01:15.00 bitrate=N/A speed= 3.8x    
frame= 2316 fps=115 q=29.0 size=N/A time=00:01:16.53 bitrate=N/A speed=3.78x    
[hls @ 0x796d7176ef00] Opening '/cache/transcodes/3fe200e49ba8f6a66ee13c6da3ea7483248.ts' for writing
frame= 2363 fps=114 q=29.0 size=N/A time=00:01:18.10 bitrate=N/A speed=3.77x    
frame= 2402 fps=113 q=29.0 size=N/A time=00:01:19.40 bitrate=N/A speed=3.74x    
[hls @ 0x796d7176ef00] Opening '/cache/transcodes/3fe200e49ba8f6a66ee13c6da3ea7483249.ts' for writing
frame= 2441 fps=112 q=29.0 size=N/A time=00:01:20.70 bitrate=N/A speed=3.71x    
frame= 2471 fps=111 q=29.0 size=N/A time=00:01:21.70 bitrate=N/A speed=3.68x    
frame= 2497 fps=110 q=29.0 size=N/A time=00:01:22.56 bitrate=N/A speed=3.63x    
[hls @ 0x796d7176ef00] Opening '/cache/transcodes/3fe200e49ba8f6a66ee13c6da3ea7483250.ts' for writing
frame= 2531 fps=109 q=29.0 size=N/A time=00:01:23.70 bitrate=N/A speed= 3.6x    
frame= 2573 fps=108 q=29.0 size=N/A time=00:01:25.10 bitrate=N/A speed=3.59x    
[hls @ 0x796d7176ef00] Opening '/cache/transcodes/3fe200e49ba8f6a66ee13c6da3ea7483251.ts' for writing
frame= 2616 fps=108 q=29.0 size=N/A time=00:01:26.53 bitrate=N/A speed=3.57x    
frame= 2664 fps=108 q=29.0 size=N/A time=00:01:28.13 bitrate=N/A speed=3.56x    
[hls @ 0x796d7176ef00] Opening '/cache/transcodes/3fe200e49ba8f6a66ee13c6da3ea7483252.ts' for writing
frame= 2724 fps=108 q=29.0 size=N/A time=00:01:30.13 bitrate=N/A speed=3.57x    
frame= 2779 fps=108 q=29.0 size=N/A time=00:01:32.03 bitrate=N/A speed=3.58x    
[hls @ 0x796d7176ef00] Opening '/cache/transcodes/3fe200e49ba8f6a66ee13c6da3ea7483253.ts' for writing
frame= 2832 fps=108 q=29.0 size=N/A time=00:01:33.73 bitrate=N/A speed=3.57x    
frame= 2868 fps=107 q=29.0 size=N/A time=00:01:34.93 bitrate=N/A speed=3.55x    
[hls @ 0x796d7176ef00] Opening '/cache/transcodes/3fe200e49ba8f6a66ee13c6da3ea7483254.ts' for writing
frame= 2906 fps=107 q=29.0 size=N/A time=00:01:36.20 bitrate=N/A speed=3.53x    
frame= 2947 fps=106 q=29.0 size=N/A time=00:01:37.56 bitrate=N/A speed=3.52x    
[hls @ 0x796d7176ef00] Opening '/cache/transcodes/3fe200e49ba8f6a66ee13c6da3ea7483255.ts' for writing
frame= 2991 fps=106 q=29.0 size=N/A time=00:01:39.03 bitrate=N/A speed=3.51x    
frame= 3045 fps=106 q=29.0 size=N/A time=00:01:40.83 bitrate=N/A speed=3.51x    
[hls @ 0x796d7176ef00] Opening '/cache/transcodes/3fe200e49ba8f6a66ee13c6da3ea7483256.ts' for writing
frame= 3113 fps=106 q=29.0 size=N/A time=00:01:43.10 bitrate=N/A speed=3.53x    
[hls @ 0x796d7176ef00] Opening '/cache/transcodes/3fe200e49ba8f6a66ee13c6da3ea7483257.ts' for writing
frame= 3185 fps=107 q=29.0 size=N/A time=00:01:45.50 bitrate=N/A speed=3.55x    
[hls @ 0x796d7176ef00] Opening '/cache/transcodes/3fe200e49ba8f6a66ee13c6da3ea7483258.ts' for writing
frame= 3246 fps=107 q=29.0 size=N/A time=00:01:47.53 bitrate=N/A speed=3.56x    
frame= 3309 fps=108 q=29.0 size=N/A time=00:01:49.63 bitrate=N/A speed=3.57x    
[hls @ 0x796d7176ef00] Opening '/cache/transcodes/3fe200e49ba8f6a66ee13c6da3ea7483259.ts' for writing
frame= 3385 fps=108 q=29.0 size=N/A time=00:01:52.16 bitrate=N/A speed=3.59x    
[hls @ 0x796d7176ef00] Opening '/cache/transcodes/3fe200e49ba8f6a66ee13c6da3ea7483260.ts' for writing
frame= 3454 fps=109 q=29.0 size=N/A time=00:01:54.46 bitrate=N/A speed= 3.6x    
[hls @ 0x796d7176ef00] Opening '/cache/transcodes/3fe200e49ba8f6a66ee13c6da3ea7483261.ts' for writing
frame= 3522 fps=109 q=29.0 size=N/A time=00:01:56.73 bitrate=N/A speed=3.62x    
frame= 3563 fps=109 q=29.0 size=N/A time=00:01:58.10 bitrate=N/A speed=3.61x    
[hls @ 0x796d7176ef00] Opening '/cache/transcodes/3fe200e49ba8f6a66ee13c6da3ea7483262.ts' for writing
frame= 3607 fps=108 q=29.0 size=N/A time=00:01:59.56 bitrate=N/A speed= 3.6x    
frame= 3648 fps=108 q=29.0 size=N/A time=00:02:00.93 bitrate=N/A speed=3.58x    
[hls @ 0x796d7176ef00] Opening '/cache/transcodes/3fe200e49ba8f6a66ee13c6da3ea7483263.ts' for writing
frame= 3695 fps=108 q=29.0 size=N/A time=00:02:02.50 bitrate=N/A speed=3.57x    
frame= 3740 fps=108 q=29.0 size=N/A time=00:02:04.00 bitrate=N/A speed=3.57x    
[hls @ 0x796d7176ef00] Opening '/cache/transcodes/3fe200e49ba8f6a66ee13c6da3ea7483264.ts' for writing
frame= 3783 fps=107 q=29.0 size=N/A time=00:02:05.43 bitrate=N/A speed=3.56x    
frame= 3826 fps=107 q=29.0 size=N/A time=00:02:06.86 bitrate=N/A speed=3.55x    
frame= 3865 fps=107 q=29.0 size=N/A time=00:02:08.16 bitrate=N/A speed=3.53x    
[hls @ 0x796d7176ef00] Opening '/cache/transcodes/3fe200e49ba8f6a66ee13c6da3ea7483265.ts' for writing
frame= 3910 fps=106 q=29.0 size=N/A time=00:02:09.66 bitrate=N/A speed=3.53x    
frame= 3950 fps=106 q=29.0 size=N/A time=00:02:11.00 bitrate=N/A speed=3.52x    
[hls @ 0x796d7176ef00] Opening '/cache/transcodes/3fe200e49ba8f6a66ee13c6da3ea7483266.ts' for writing
frame= 3991 fps=106 q=29.0 size=N/A time=00:02:12.36 bitrate=N/A speed= 3.5x    
frame= 4040 fps=106 q=29.0 size=N/A time=00:02:14.00 bitrate=N/A speed= 3.5x    
[hls @ 0x796d7176ef00] Opening '/cache/transcodes/3fe200e49ba8f6a66ee13c6da3ea7483267.ts' for writing
frame= 4081 fps=105 q=29.0 size=N/A time=00:02:15.36 bitrate=N/A speed=3.49x    
frame= 4127 fps=105 q=29.0 size=N/A time=00:02:16.90 bitrate=N/A speed=3.49x    
[hls @ 0x796d7176ef00] Opening '/cache/transcodes/3fe200e49ba8f6a66ee13c6da3ea7483268.ts' for writing
frame= 4168 fps=105 q=29.0 size=N/A time=00:02:18.26 bitrate=N/A speed=3.48x    
frame= 4208 fps=104 q=29.0 size=N/A time=00:02:19.60 bitrate=N/A speed=3.47x    
[hls @ 0x796d7176ef00] Opening '/cache/transcodes/3fe200e49ba8f6a66ee13c6da3ea7483269.ts' for writing
frame= 4249 fps=104 q=29.0 size=N/A time=00:02:20.96 bitrate=N/A speed=3.46x    
frame= 4295 fps=104 q=29.0 size=N/A time=00:02:22.50 bitrate=N/A speed=3.45x    
[hls @ 0x796d7176ef00] Opening '/cache/transcodes/3fe200e49ba8f6a66ee13c6da3ea7483270.ts' for writing
frame= 4341 fps=104 q=29.0 size=N/A time=00:02:24.03 bitrate=N/A speed=3.45x    

[q] command received. Exiting.

[hls @ 0x796d7176ef00] Opening '/cache/transcodes/3fe200e49ba8f6a66ee13c6da3ea7483271.ts' for writing
[hls @ 0x796d7176ef00] Opening '/cache/transcodes/3fe200e49ba8f6a66ee13c6da3ea7483272.ts' for writing
[out#0/hls @ 0x796d718811c0] video:31484KiB audio:4603KiB subtitle:0KiB other streams:0KiB global headers:0KiB muxing overhead: unknown
frame= 4423 fps=104 q=-1.0 Lsize=N/A time=00:02:26.63 bitrate=N/A dup=3 drop=0 speed=3.44x    
[libx264 @ 0x796d71902500] frame I:50    Avg QP:15.60  size: 42978
[libx264 @ 0x796d71902500] frame P:1260  Avg QP:18.65  size: 15199
[libx264 @ 0x796d71902500] frame B:3113  Avg QP:20.16  size:  3514
[libx264 @ 0x796d71902500] consecutive B-frames:  1.7% 11.6%  5.8% 80.9%
[libx264 @ 0x796d71902500] mb I  I16..4: 34.4% 54.2% 11.4%
[libx264 @ 0x796d71902500] mb P  I16..4: 16.0% 20.0%  0.8%  P16..4: 15.8%  4.8%  1.5%  0.0%  0.0%    skip:41.2%
[libx264 @ 0x796d71902500] mb B  I16..4:  1.7%  1.7%  0.0%  B16..8:  9.9%  1.6%  0.1%  direct: 2.9%  skip:82.0%  L0:49.3% L1:47.0% BI: 3.6%
[libx264 @ 0x796d71902500] 8x8 transform intra:53.4% inter:39.7%
[libx264 @ 0x796d71902500] coded y,uvDC,uvAC intra: 17.8% 29.4% 1.8% inter: 0.9% 6.5% 0.0%
[libx264 @ 0x796d71902500] i16 v,h,dc,p: 60% 18% 10% 12%
[libx264 @ 0x796d71902500] i8 v,h,dc,ddl,ddr,vr,hd,vl,hu: 25% 14% 22%  7%  7%  9%  5%  6%  4%
[libx264 @ 0x796d71902500] i4 v,h,dc,ddl,ddr,vr,hd,vl,hu: 29% 18% 16%  7%  8%  8%  5%  5%  5%
[libx264 @ 0x796d71902500] i8c dc,h,v,p: 48% 19% 26%  7%
[libx264 @ 0x796d71902500] Weighted P-Frames: Y:0.9% UV:0.5%
[libx264 @ 0x796d71902500] kb/s:1749.34